<?xml version="1.0" encoding="UTF-8"?>
<svg xmlns="http://www.w3.org/2000/svg" width="40" height="40" viewBox="0 0 40 40">
    <g fill="none" fill-rule="evenodd">
        <path fill="#FF2941" d="M2.559 16.556l3.499-3.5 6.998 6.998-6.998 6.998-3.5-3.499a4.948 4.948 0 0 1 .001-6.997z"/>
        <path fill="#FF6F43" d="M6.058 27.052l6.998-6.998 6.998 6.998-6.998 6.998z"/>
        <path fill="#D0154C" d="M6.058 13.056L9.643 9.47l3.413-3.412 6.998 6.998-6.998 6.998z"/>
        <path fill="#FFB144" d="M13.056 34.05l6.998-6.998 6.998 6.998-3.5 3.499a4.948 4.948 0 0 1-6.997 0l-3.5-3.499z"/>
        <path fill="#FF6F43" d="M20.054 27.052l6.998-6.998 6.998 6.998-6.998 6.998z"/>
        <path fill="#9E0054" d="M13.056 6.058l3.5-3.499a4.948 4.948 0 0 1 6.998 0l3.499 3.499-6.999 6.998-6.998-6.998z"/>
        <path fill="#D0154C" d="M20.054 13.056l6.998-6.998 6.998 6.998-6.998 6.998z"/>
        <path fill="#FFF" d="M24.081 17.083l2.971 2.971-6.998 6.998-3.831 3.831.002-7.66-3.17-3.169 6.977-6.976 4.047-4.104z"/>
        <path fill="#FF2941" d="M27.052 20.054l6.998-6.998 3.5 3.5a4.948 4.948 0 0 1 0 6.998l-3.5 3.499-6.998-6.999z"/>
    </g>
</svg>
